# xmcd CD database file
# Copyright (C) 1993-1998 Ti Kan
#
# Track frame offsets:
#	180
#	19529
#	35377
#	52179
#	82543
#	106388
#	135231
#	156456
#	169174
#	191826
#	212480
#
# Disc length: 3098 seconds
#
# Revision: 0
# Processed by: cddbd v1.4b41PL1 Copyright (c) Steve Scherf et al.
# Submitted via: CDmax 1.5
#
DISCID=870c180b
DTITLE=Robin Bank$ Blues Band - Permanent Record
DYEAR=1900
DGENRE=
TTITLE0=Yer Usin' Me
TTITLE1=The Spell
TTITLE2=Since You Been Gone
TTITLE3=Someone To Talk To
TTITLE4=You Can Have My Husband
TTITLE5=Long Lonely Evenin'
TTITLE6=W.O.M.A.N.
TTITLE7=Rocket Boogie
TTITLE8=Puck's Blues
TTITLE9=I Just Got To Know
TTITLE10=Sugar Coated Love
EXTD=
EXTT0=
EXTT1=
EXTT2=
EXTT3=
EXTT4=
EXTT5=
EXTT6=
EXTT7=
EXTT8=
EXTT9=
EXTT10=
PLAYORDER=
